<svg width="512" height="512" viewBox="0 0 512 512" fill="none" xmlns="http://www.w3.org/2000/svg">
<path d="M400 296C388.924 296 378.097 299.284 368.888 305.438C359.679 311.591 352.501 320.337 348.263 330.57C344.024 340.802 342.915 352.062 345.076 362.925C347.237 373.788 352.57 383.766 360.402 391.598C368.234 399.43 378.212 404.763 389.075 406.924C399.938 409.085 411.198 407.976 421.43 403.737C431.663 399.499 440.409 392.321 446.562 383.112C452.716 373.903 456 363.076 456 352C455.983 337.153 450.078 322.919 439.579 312.421C429.081 301.922 414.847 296.017 400 296ZM360 352C359.988 344.773 361.938 337.678 365.642 331.471C369.345 325.265 374.663 320.18 381.029 316.759C387.395 313.337 394.571 311.707 401.79 312.043C409.01 312.378 416.003 314.667 422.024 318.664L366.664 374.024C362.319 367.501 360 359.838 360 352ZM400 392C392.162 392 384.499 389.681 377.976 385.336L433.336 329.976C437.333 335.997 439.622 342.99 439.957 350.21C440.293 357.429 438.663 364.605 435.241 370.971C431.82 377.337 426.735 382.655 420.529 386.358C414.322 390.062 407.227 392.012 400 392ZM408 264.4V96C407.994 89.6368 405.463 83.5359 400.964 79.0365C396.464 74.537 390.363 72.0064 384 72H48C41.6368 72.0064 35.536 74.537 31.0365 79.0365C26.537 83.5359 24.0064 89.6368 24 96V344C24.0064 350.363 26.537 356.464 31.0365 360.964C35.536 365.463 41.6368 367.994 48 368H313.528C316.505 384.102 323.918 399.053 334.931 411.171C345.944 423.289 360.122 432.093 375.867 436.591C391.612 441.088 408.3 441.102 424.052 436.631C439.805 432.159 453.997 423.379 465.03 411.279C476.064 399.18 483.501 384.241 486.505 368.144C489.509 352.047 487.96 335.431 482.033 320.166C476.106 304.901 466.036 291.594 452.957 281.742C439.877 271.89 424.308 265.884 408 264.4ZM48 88H384C386.121 88.0021 388.155 88.8456 389.655 90.3455C391.154 91.8453 391.998 93.8789 392 96V264.4C378.243 265.657 364.981 270.162 353.304 277.544L291.832 209.976C290.424 208.22 288.662 206.781 286.66 205.751C284.659 204.722 282.463 204.125 280.216 204C277.969 203.863 275.718 204.209 273.616 205.013C271.513 205.818 269.606 207.062 268.024 208.664L224.016 252.664L180.656 195.96C179.226 193.94 177.344 192.282 175.158 191.119C172.973 189.956 170.547 189.321 168.072 189.264C165.6 189.205 163.148 189.715 160.904 190.756C158.661 191.796 156.688 193.339 155.136 195.264L40 339.184V96C40.0021 93.8789 40.8457 91.8453 42.3455 90.3455C43.8453 88.8456 45.8789 88.0021 48 88ZM279.808 352H50.256L167.792 205.472L279.808 352ZM299.96 352L233.84 265.528L279.656 220.36L340.536 287.304C331.549 295.516 324.37 305.509 319.457 316.648C314.544 327.786 312.005 339.826 312 352H299.96ZM400 424C385.76 424 371.839 419.777 359.999 411.866C348.159 403.954 338.93 392.709 333.481 379.553C328.031 366.397 326.605 351.92 329.383 337.953C332.162 323.987 339.019 311.158 349.088 301.088C359.158 291.019 371.987 284.162 385.953 281.383C399.92 278.605 414.397 280.031 427.553 285.481C440.709 290.93 451.954 300.159 459.866 311.999C467.777 323.839 472 337.76 472 352C471.979 371.089 464.386 389.39 450.888 402.888C437.39 416.386 419.089 423.979 400 424ZM320 184C327.911 184 335.645 181.654 342.223 177.259C348.801 172.864 353.928 166.616 356.955 159.307C359.983 151.998 360.775 143.956 359.231 136.196C357.688 128.437 353.878 121.31 348.284 115.716C342.69 110.122 335.563 106.312 327.804 104.769C320.044 103.225 312.002 104.017 304.693 107.045C297.384 110.072 291.136 115.199 286.741 121.777C282.346 128.355 280 136.089 280 144C280.013 154.605 284.231 164.772 291.73 172.27C299.228 179.769 309.395 183.987 320 184ZM320 120C324.747 120 329.387 121.408 333.334 124.045C337.28 126.682 340.357 130.43 342.173 134.816C343.99 139.201 344.465 144.027 343.539 148.682C342.613 153.338 340.327 157.614 336.971 160.971C333.614 164.327 329.338 166.613 324.682 167.539C320.027 168.465 315.201 167.99 310.816 166.173C306.43 164.357 302.682 161.28 300.045 157.334C297.408 153.387 296 148.747 296 144C296.006 137.637 298.537 131.536 303.036 127.036C307.536 122.537 313.637 120.006 320 120Z" fill="black"/>
</svg>
